<svg xmlns="http://www.w3.org/2000/svg" fill="#fff" xmlns:xlink="http://www.w3.org/1999/xlink" version="1.1" x="0px" y="0px" viewBox="910 550 100 125" enable-background="new 910 550 100 100" xml:space="preserve"><g><path d="M948.502,583.042c0.099,0.305,0.179,0.619,0.239,0.932c0.077,0.405,0.432,0.686,0.829,0.686   c0.053,0,0.106-0.005,0.16-0.015c0.458-0.088,0.759-0.53,0.671-0.988c-0.073-0.381-0.17-0.763-0.29-1.133   c-0.143-0.444-0.618-0.688-1.063-0.544C948.603,582.123,948.359,582.599,948.502,583.042z"/><path d="M939.896,576.524c-0.001,0.466,0.377,0.845,0.843,0.846c2.439,0.004,4.828,1.172,6.39,3.124   c0.167,0.208,0.412,0.316,0.66,0.316c0.185,0,0.372-0.061,0.527-0.185c0.364-0.292,0.423-0.823,0.131-1.188   c-1.879-2.348-4.76-3.752-7.706-3.757c0,0-0.001,0-0.001,0C940.274,575.681,939.896,576.058,939.896,576.524z"/><path d="M943.556,605.017h-3.795c-0.467,0-0.845,0.379-0.845,0.845c0,0.467,0.378,0.845,0.845,0.845h3.795   c0.467,0,0.845-0.378,0.845-0.845C944.401,605.396,944.023,605.017,943.556,605.017z"/><path d="M999.752,611.283l-2.591-2.591c-1.657-1.657-4.24-1.838-6.101-0.544l-1.692-1.692c0.255,0.034,0.427,0.057,0.436,0.057   c0.184,0,0.363-0.061,0.511-0.173c0.179-0.136,0.296-0.336,0.326-0.558l2.102-15.399c0.062-0.462-0.261-0.888-0.723-0.951   l-3.631-0.497c-2.323-0.317-4.489,1.104-5.187,3.26l-8.198-1.118c-0.58-0.08-1.159-0.103-1.732-0.074v-3.734   c0-1.778-0.692-3.449-1.948-4.702c-1.252-1.255-2.922-1.947-4.7-1.947c-1.775,0-3.445,0.692-4.701,1.948   c-1.256,1.256-1.946,2.926-1.945,4.701v4.509h-3.267l-3.35-3.351c0.245-0.998,0.377-2.04,0.377-3.112   c0-7.201-5.859-13.06-13.06-13.06c-6.562,0-12.007,4.865-12.922,11.177l-6.016,6.017c-1.121,1.121-1.739,2.612-1.739,4.198   s0.618,3.077,1.739,4.198l13.642,13.642v1.413c0,5.123,4.167,9.29,9.289,9.29h1.326l0.667,0.666   c3.257,3.258,7.534,4.886,11.812,4.886c4.277,0,8.557-1.629,11.813-4.886l8.353-8.322l8.927,8.934   c0.164,0.164,0.381,0.247,0.597,0.247s0.433-0.083,0.598-0.247l10.989-10.99C1000.082,612.148,1000.082,611.613,999.752,611.283z    M979.486,612.989v-6.394c1.326-0.18,2.605-0.776,3.622-1.794c0.378-0.377,0.701-0.796,0.969-1.247l3.652,3.651l-7.014,7.013   L979.486,612.989z M969.652,604.72l-3.678-3.678l0.244-1.788c0.001-0.008,0.003-0.015,0.004-0.023   c0.493,0.242,1.017,0.419,1.567,0.527c0.412,0.081,0.825,0.121,1.235,0.121c0.986,0,1.953-0.235,2.839-0.684l1.526,2.008   c-0.467,0.321-0.908,0.686-1.317,1.095L969.652,604.72z M973.578,592.682c0.109,0.583,0.106,1.172-0.009,1.757   c-0.239,1.218-0.938,2.269-1.968,2.96s-2.268,0.941-3.485,0.702c-0.521-0.103-1.011-0.289-1.459-0.553   c0.5-1.306,1.353-2.452,2.493-3.319C970.445,593.246,971.983,592.714,973.578,592.682z M978.642,599.577   c-1.317,0-2.593,0.275-3.762,0.794l-1.619-2.129c1.012-0.911,1.699-2.118,1.967-3.477c0.127-0.646,0.151-1.297,0.077-1.942   l4.673,0.637l-0.835,6.132C978.977,599.583,978.81,599.577,978.642,599.577z M978.642,601.267c1.479,0,2.893,0.422,4.107,1.204   c-0.219,0.418-0.497,0.799-0.835,1.137c-1.811,1.811-4.758,1.812-6.568,0c-0.336-0.336-0.612-0.714-0.829-1.125   C975.735,601.692,977.155,601.267,978.642,601.267z M989.081,604.716l-1.336-0.183l1.874-13.725l1.335,0.182L989.081,604.716z    M983.736,593.972c0.465,0.061,0.888-0.26,0.951-0.723c0.22-1.612,1.656-2.762,3.257-2.659l-1.735,12.706l-0.999-0.999   c-1.229-1.229-2.745-2.071-4.396-2.465l0.837-6.145L983.736,593.972z M968.129,592.884c-1.09,0.828-1.964,1.864-2.587,3.038   l-3.876-3.876c0,0,0.003-4.91,0.005-4.976h9.906c0.003,0.066,0.005,4.175,0.005,4.175   C970.346,591.541,969.172,592.091,968.129,592.884z M966.623,582.309c1.327,0,2.571,0.515,3.506,1.452   c0.473,0.471,0.837,1.021,1.083,1.619h-9.176c0.245-0.598,0.61-1.147,1.081-1.619C964.054,582.825,965.299,582.309,966.623,582.309   z M960.698,593.467c0,0,4.115,4.106,4.156,4.135c-0.138,0.462-0.243,0.937-0.31,1.424l-0.07,0.517l-6.075-6.075L960.698,593.467   L960.698,593.467z M968.458,605.914l-2.601,2.601l-15.015-15.014c0.794-0.983,1.447-2.083,1.931-3.271L968.458,605.914z    M952.048,585.314c0,0.394-0.02,0.782-0.059,1.165c-2.771,2.692-6.513,3.83-9.739,2.994c-0.062-1.059-0.499-2.047-1.255-2.803   c-0.817-0.817-1.904-1.268-3.06-1.268c-0.186,0-0.369,0.016-0.549,0.039c-1.59-3.45-0.545-7.947,2.662-11.154   c0.119-0.119,0.235-0.229,0.35-0.335c0.093-0.002,0.186-0.007,0.28-0.007C946.947,573.944,952.048,579.045,952.048,585.314z    M937.935,587.091c0.705,0,1.367,0.275,1.866,0.773c0.499,0.499,0.773,1.161,0.773,1.866s-0.274,1.368-0.773,1.866   c-0.499,0.499-1.161,0.773-1.866,0.773c-0.705,0-1.368-0.274-1.866-0.773c-0.499-0.498-0.773-1.161-0.773-1.866   s0.274-1.368,0.773-1.866C936.567,587.366,937.229,587.091,937.935,587.091z M937.757,574.326   c-2.784,3.527-3.566,8.032-1.982,11.656c-0.325,0.188-0.629,0.416-0.901,0.688c-0.818,0.817-1.268,1.904-1.268,3.06   c0,1.156,0.451,2.243,1.268,3.061s1.904,1.268,3.061,1.268c1.156,0,2.243-0.45,3.06-1.268c0.469-0.468,0.812-1.027,1.023-1.635   c0.776,0.184,1.573,0.276,2.378,0.276c2.387,0,4.839-0.792,6.98-2.271c-1.58,4.383-5.779,7.524-10.699,7.524   c-6.27,0-11.371-5.101-11.371-11.371C929.307,580.055,932.898,575.619,937.757,574.326z M935.38,600.762l-11.283-11.283   l3.536-3.536c0.24,5.047,3.36,9.35,7.747,11.305L935.38,600.762L935.38,600.762z M926.396,600.114l2.974-2.974l1.332,1.332   l-2.974,2.974L926.396,600.114z M921.688,593.647c0-1.121,0.433-2.174,1.216-2.973l5.271,5.271l-2.974,2.974l-2.269-2.269   C922.13,595.849,921.688,594.782,921.688,593.647z M928.922,602.641l2.974-2.974l3.484,3.484v5.948L928.922,602.641z    M937.186,614.218c1.629-0.745,3.561-0.418,4.857,0.879c1.368,1.368,1.641,3.503,0.727,5.164   C939.912,619.521,937.702,617.157,937.186,614.218z M944.532,620.497c0.794-1.87,0.591-4.013-0.56-5.704l4.209-4.21h5.005   c0.066,0,0.132,0.002,0.198,0.005v9.908C953.319,620.498,944.578,620.498,944.532,620.497z M958.146,615.542   c0,2.066-1.271,3.841-3.072,4.585v-9.17C956.875,611.701,958.146,613.476,958.146,615.542z M969.095,621.662   c-5.674,5.674-14.795,5.85-20.682,0.528h4.774c3.666,0,6.648-2.982,6.648-6.648s-2.982-6.648-6.648-6.648h-4.51v-9.367   c0-0.467-0.378-0.845-0.845-0.845c-0.466,0-0.845,0.378-0.845,0.845v9.862l-4.149,4.148c-1.621-1.357-3.805-1.748-5.769-1.088   v-14.585c1.147,0.33,2.356,0.511,3.608,0.511c3.497,0,6.674-1.384,9.021-3.63l14.964,14.964l-2.046,2.047   c-0.33,0.329-0.33,0.864,0,1.194c0.329,0.33,0.865,0.33,1.194,0l9.38-9.381c0.267,0.445,0.586,0.858,0.961,1.232   c1.022,1.023,2.312,1.621,3.646,1.797v6.391L969.095,621.662z M981.911,615.413l7.013-7.013l1.487,1.487   c0.33,0.33,0.864,0.33,1.194,0c1.15-1.15,2.989-1.197,4.199-0.146l-9.787,9.787L981.911,615.413z M988.165,621.676l-0.953-0.953   l9.795-9.795l0.953,0.953L988.165,621.676z"/></g></svg>